<mxfile host="app.diagrams.net" modified="2024-03-01T00:47:16.011Z" agent="Mozilla/5.0 (Windows NT 10.0; Win64; x64) AppleWebKit/537.36 (KHTML, like Gecko) Chrome/121.0.0.0 Safari/537.36" etag="-vAn9gW9mvhykD5qFR1o" version="23.1.7" type="device" pages="2">
  <diagram name="Services" id="A8EMjc6KXXFbF24FhkTX">
    <mxGraphModel dx="2336" dy="1031" grid="1" gridSize="10" guides="1" tooltips="1" connect="1" arrows="1" fold="1" page="1" pageScale="1" pageWidth="850" pageHeight="1100" math="0" shadow="0">
      <root>
        <mxCell id="0" />
        <mxCell id="1" parent="0" />
        <mxCell id="Phx5O17Z-lk2OUaIVUPk-3" value="Search Service" style="rounded=0;whiteSpace=wrap;html=1;fillColor=#ffe6cc;strokeColor=#d79b00;" vertex="1" parent="1">
          <mxGeometry x="100" y="520" width="120" height="60" as="geometry" />
        </mxCell>
        <mxCell id="Phx5O17Z-lk2OUaIVUPk-5" value="User Service" style="rounded=0;whiteSpace=wrap;html=1;fillColor=#dae8fc;strokeColor=#6c8ebf;" vertex="1" parent="1">
          <mxGeometry x="-60" y="520" width="120" height="60" as="geometry" />
        </mxCell>
        <mxCell id="Phx5O17Z-lk2OUaIVUPk-6" value="Actor" style="shape=umlActor;verticalLabelPosition=bottom;verticalAlign=top;html=1;outlineConnect=0;" vertex="1" parent="1">
          <mxGeometry x="305" y="30" width="30" height="60" as="geometry" />
        </mxCell>
        <mxCell id="Phx5O17Z-lk2OUaIVUPk-7" value="Front End Service" style="rounded=0;whiteSpace=wrap;html=1;fillColor=#ffe6cc;strokeColor=#d79b00;" vertex="1" parent="1">
          <mxGeometry x="260" y="180" width="120" height="60" as="geometry" />
        </mxCell>
        <mxCell id="Phx5O17Z-lk2OUaIVUPk-15" value="&lt;h1&gt;Front End Service&lt;br&gt;&lt;/h1&gt;&lt;p&gt;Use HTMX and make calls through the API Gateway service.&lt;br&gt;&lt;br&gt;Responsible for rendering the web page to the user&lt;br&gt;Make back end grpc requests&lt;/p&gt;&lt;p&gt;&lt;br&gt;&lt;/p&gt;" style="text;html=1;spacing=5;spacingTop=-20;whiteSpace=wrap;overflow=hidden;rounded=0;" vertex="1" parent="1">
          <mxGeometry x="20" y="150" width="240" height="180" as="geometry" />
        </mxCell>
        <mxCell id="Phx5O17Z-lk2OUaIVUPk-17" value="Monster Service" style="rounded=0;whiteSpace=wrap;html=1;fillColor=#ffe6cc;strokeColor=#d79b00;" vertex="1" parent="1">
          <mxGeometry x="260" y="520" width="120" height="60" as="geometry" />
        </mxCell>
        <mxCell id="Phx5O17Z-lk2OUaIVUPk-22" value="&lt;h1&gt;Services&lt;br&gt;&lt;/h1&gt;&lt;p&gt;Will be grpc with only the front end implementing REST for browers. All calls from the front end will be in grpc.&lt;br&gt;&lt;/p&gt;" style="text;html=1;spacing=5;spacingTop=-20;whiteSpace=wrap;overflow=hidden;rounded=0;" vertex="1" parent="1">
          <mxGeometry x="-280" y="460" width="190" height="120" as="geometry" />
        </mxCell>
        <mxCell id="Phx5O17Z-lk2OUaIVUPk-24" value="authorization" style="ellipse;whiteSpace=wrap;html=1;fillColor=#dae8fc;strokeColor=#6c8ebf;" vertex="1" parent="1">
          <mxGeometry x="-60" y="610" width="120" height="80" as="geometry" />
        </mxCell>
        <mxCell id="Phx5O17Z-lk2OUaIVUPk-25" value="result streaming" style="ellipse;whiteSpace=wrap;html=1;fillColor=#ffe6cc;strokeColor=#d79b00;" vertex="1" parent="1">
          <mxGeometry x="100" y="610" width="120" height="80" as="geometry" />
        </mxCell>
        <mxCell id="Phx5O17Z-lk2OUaIVUPk-26" value="CRUD monsters" style="ellipse;whiteSpace=wrap;html=1;fillColor=#ffe6cc;strokeColor=#d79b00;" vertex="1" parent="1">
          <mxGeometry x="260" y="610" width="120" height="80" as="geometry" />
        </mxCell>
        <mxCell id="Phx5O17Z-lk2OUaIVUPk-27" value="Monster Scrapper tool" style="shape=document;whiteSpace=wrap;html=1;boundedLbl=1;fillColor=#ffe6cc;strokeColor=#d79b00;" vertex="1" parent="1">
          <mxGeometry x="560" y="520" width="120" height="80" as="geometry" />
        </mxCell>
        <mxCell id="Phx5O17Z-lk2OUaIVUPk-28" value="Selection Services" style="ellipse;whiteSpace=wrap;html=1;fillColor=#ffe6cc;strokeColor=#d79b00;" vertex="1" parent="1">
          <mxGeometry x="260" y="710" width="120" height="80" as="geometry" />
        </mxCell>
        <mxCell id="Phx5O17Z-lk2OUaIVUPk-29" value="Puzzle Engine" style="rounded=0;whiteSpace=wrap;html=1;fillColor=#ffe6cc;strokeColor=#d79b00;" vertex="1" parent="1">
          <mxGeometry x="410" y="520" width="120" height="60" as="geometry" />
        </mxCell>
        <mxCell id="Rk2qm_qsLm5lbP_SRgNX-1" value="Contract Library" style="shape=hexagon;perimeter=hexagonPerimeter2;whiteSpace=wrap;html=1;fixedSize=1;fillColor=#ffe6cc;strokeColor=#d79b00;" vertex="1" parent="1">
          <mxGeometry x="710" y="520" width="120" height="80" as="geometry" />
        </mxCell>
      </root>
    </mxGraphModel>
  </diagram>
  <diagram id="54TwhWkCk7y8nXMJlLyj" name="UserFlow">
    <mxGraphModel dx="1263" dy="876" grid="1" gridSize="10" guides="1" tooltips="1" connect="1" arrows="1" fold="1" page="1" pageScale="1" pageWidth="850" pageHeight="1100" math="0" shadow="0">
      <root>
        <mxCell id="0" />
        <mxCell id="1" parent="0" />
        <mxCell id="oGypFT1uC1wswg84BPtH-6" style="edgeStyle=orthogonalEdgeStyle;rounded=0;orthogonalLoop=1;jettySize=auto;html=1;" edge="1" parent="1" source="oGypFT1uC1wswg84BPtH-1" target="oGypFT1uC1wswg84BPtH-2">
          <mxGeometry relative="1" as="geometry" />
        </mxCell>
        <mxCell id="oGypFT1uC1wswg84BPtH-17" style="edgeStyle=orthogonalEdgeStyle;rounded=0;orthogonalLoop=1;jettySize=auto;html=1;entryX=0.25;entryY=1;entryDx=0;entryDy=0;" edge="1" parent="1" source="oGypFT1uC1wswg84BPtH-1" target="oGypFT1uC1wswg84BPtH-14">
          <mxGeometry relative="1" as="geometry" />
        </mxCell>
        <mxCell id="oGypFT1uC1wswg84BPtH-1" value="Load puzzle" style="rounded=1;whiteSpace=wrap;html=1;fillColor=#ffe6cc;strokeColor=#d79b00;" vertex="1" parent="1">
          <mxGeometry x="80" y="280" width="120" height="60" as="geometry" />
        </mxCell>
        <mxCell id="oGypFT1uC1wswg84BPtH-7" style="edgeStyle=orthogonalEdgeStyle;rounded=0;orthogonalLoop=1;jettySize=auto;html=1;" edge="1" parent="1" source="oGypFT1uC1wswg84BPtH-2" target="oGypFT1uC1wswg84BPtH-3">
          <mxGeometry relative="1" as="geometry" />
        </mxCell>
        <mxCell id="oGypFT1uC1wswg84BPtH-2" value="Stream search results" style="rounded=1;whiteSpace=wrap;html=1;fillColor=#ffe6cc;strokeColor=#d79b00;" vertex="1" parent="1">
          <mxGeometry x="240" y="280" width="120" height="60" as="geometry" />
        </mxCell>
        <mxCell id="oGypFT1uC1wswg84BPtH-8" style="edgeStyle=orthogonalEdgeStyle;rounded=0;orthogonalLoop=1;jettySize=auto;html=1;" edge="1" parent="1" source="oGypFT1uC1wswg84BPtH-3">
          <mxGeometry relative="1" as="geometry">
            <mxPoint x="500" y="270" as="targetPoint" />
          </mxGeometry>
        </mxCell>
        <mxCell id="oGypFT1uC1wswg84BPtH-9" style="edgeStyle=orthogonalEdgeStyle;rounded=0;orthogonalLoop=1;jettySize=auto;html=1;" edge="1" parent="1" source="oGypFT1uC1wswg84BPtH-3">
          <mxGeometry relative="1" as="geometry">
            <mxPoint x="440" y="350" as="targetPoint" />
          </mxGeometry>
        </mxCell>
        <mxCell id="oGypFT1uC1wswg84BPtH-10" style="edgeStyle=orthogonalEdgeStyle;rounded=0;orthogonalLoop=1;jettySize=auto;html=1;entryX=0;entryY=0.5;entryDx=0;entryDy=0;" edge="1" parent="1" source="oGypFT1uC1wswg84BPtH-3" target="oGypFT1uC1wswg84BPtH-4">
          <mxGeometry relative="1" as="geometry" />
        </mxCell>
        <mxCell id="oGypFT1uC1wswg84BPtH-3" value="Submit answer" style="rounded=1;whiteSpace=wrap;html=1;fillColor=#ffe6cc;strokeColor=#d79b00;" vertex="1" parent="1">
          <mxGeometry x="410" y="280" width="120" height="60" as="geometry" />
        </mxCell>
        <mxCell id="oGypFT1uC1wswg84BPtH-4" value="Report Results" style="rounded=1;whiteSpace=wrap;html=1;fillColor=#ffe6cc;strokeColor=#d79b00;" vertex="1" parent="1">
          <mxGeometry x="570" y="280" width="120" height="60" as="geometry" />
        </mxCell>
        <mxCell id="oGypFT1uC1wswg84BPtH-11" value="Create account" style="rounded=1;whiteSpace=wrap;html=1;fillColor=#f5f5f5;fontColor=#333333;strokeColor=#666666;" vertex="1" parent="1">
          <mxGeometry x="570" y="360" width="120" height="60" as="geometry" />
        </mxCell>
        <mxCell id="oGypFT1uC1wswg84BPtH-13" style="edgeStyle=orthogonalEdgeStyle;rounded=0;orthogonalLoop=1;jettySize=auto;html=1;entryX=0;entryY=0.617;entryDx=0;entryDy=0;entryPerimeter=0;" edge="1" parent="1" source="oGypFT1uC1wswg84BPtH-3" target="oGypFT1uC1wswg84BPtH-11">
          <mxGeometry relative="1" as="geometry" />
        </mxCell>
        <mxCell id="oGypFT1uC1wswg84BPtH-15" style="edgeStyle=orthogonalEdgeStyle;rounded=0;orthogonalLoop=1;jettySize=auto;html=1;" edge="1" parent="1" source="oGypFT1uC1wswg84BPtH-14" target="oGypFT1uC1wswg84BPtH-2">
          <mxGeometry relative="1" as="geometry" />
        </mxCell>
        <mxCell id="oGypFT1uC1wswg84BPtH-14" value="Login" style="rounded=1;whiteSpace=wrap;html=1;fillColor=#f5f5f5;fontColor=#333333;strokeColor=#666666;" vertex="1" parent="1">
          <mxGeometry x="160" y="150" width="120" height="60" as="geometry" />
        </mxCell>
        <mxCell id="oGypFT1uC1wswg84BPtH-19" style="edgeStyle=orthogonalEdgeStyle;rounded=0;orthogonalLoop=1;jettySize=auto;html=1;entryX=0;entryY=0.5;entryDx=0;entryDy=0;" edge="1" parent="1" source="oGypFT1uC1wswg84BPtH-18" target="oGypFT1uC1wswg84BPtH-1">
          <mxGeometry relative="1" as="geometry" />
        </mxCell>
        <mxCell id="oGypFT1uC1wswg84BPtH-18" value="&lt;div&gt;Nerd&lt;/div&gt;&lt;div&gt;&lt;br&gt;&lt;/div&gt;" style="shape=umlActor;verticalLabelPosition=bottom;verticalAlign=top;html=1;outlineConnect=0;" vertex="1" parent="1">
          <mxGeometry y="280" width="30" height="60" as="geometry" />
        </mxCell>
      </root>
    </mxGraphModel>
  </diagram>
</mxfile>
